<?xml version="1.0" encoding="utf-8"?>
<!-- Generator: Adobe Illustrator 23.0.0, SVG Export Plug-In . SVG Version: 6.00 Build 0)  -->
<svg version="1.1" id="Layer_1" xmlns="http://www.w3.org/2000/svg" xmlns:xlink="http://www.w3.org/1999/xlink" x="0px" y="0px"
	 viewBox="0 0 506 213" style="enable-background:new 0 0 506 213;" xml:space="preserve">
<style type="text/css">
	.st0{fill:#F9CB17;}
	.st1{display:none;}
	.st2{display:inline;fill:#F9CB17;}
	.st3{fill:#F9CA0F;}
	.st4{fill:#F9CA0F;stroke:#F9CA0F;stroke-width:0.7417;stroke-miterlimit:10;}
</style>
<g>
	<path class="st0" d="M317.9,198.8L345,9.5L457.8,10c0,0,35,4.9,36,40.2s-18.6,42.6-36.9,50.3c0,0,34.5,8.1,27.5,49.1
		s-48.6,49.1-54.2,49.1S317.9,198.8,317.9,198.8z"/>
	<g id="XMLID_82_" class="st1">
		<path id="XMLID_87_" class="st2" d="M493.8,50.2c0-11.5-4.2-21.2-12.4-29c-8.3-7.8-18.8-11.7-31.4-11.7H345l-14.1,99.8
			c17.3,6.5,36,10,55.5,10c25.3,0,49.3-6,70.5-16.5c-0.7-0.2-1.3-0.4-1.9-0.6l0.3-1.1C481,93.4,493.8,76.5,493.8,50.2z M437.1,64.2
			l-0.6,4.8c-0.4,3.9-2.1,7.2-5.3,9.9c-3.2,2.7-6.7,4.1-10.6,4.1h-32.1l4.5-32.7h32.1c3.5,0,6.4,1.1,8.7,3.4
			c2.2,2.2,3.3,5.1,3.3,8.6V64.2z"/>
		<path id="XMLID_83_" class="st2" d="M456.9,100.5c-21.2,10.5-45.2,16.5-70.5,16.5c-19.5,0-38.3-3.5-55.5-10l-13,91.8h106.6
			c18.1,0,32.7-6.1,44-18.5c11.2-12.3,16.9-26.4,16.9-42.4C485.5,118.3,476,105.8,456.9,100.5z M430.2,135.4l-0.6,5.1
			c-0.4,3.9-2.2,7.2-5.3,9.9c-3.2,2.7-6.7,4-10.6,4h-35.4l4.5-32.9h35.5c3.5,0,6.4,1.1,8.6,3.4c2.3,2.2,3.4,5.1,3.4,8.6L430.2,135.4
			L430.2,135.4z"/>
	</g>
</g>
<g>
	<path id="XMLID_215_" class="st3" d="M140.7,122.9V79.5h-7.1v-7.2h19.3c5.3,0,9.3,0.3,11.9,1c2.6,0.6,5,2.3,7,4.9
		c2,2.6,3,5.6,3,9.1c0,2.7-0.6,5.1-1.8,7.3s-3,3.8-5.3,4.9c3.2,1.1,5.7,3,7.4,5.5c1.7,2.6,2.6,5.5,2.6,8.8c0,2.9-0.6,5.5-1.9,7.8
		c-1.3,2.3-3,4.1-5.1,5.4s-4.5,2.1-7,2.6c-2.5,0.5-6,0.7-10.4,0.7h-19.7V123L140.7,122.9L140.7,122.9z M149.4,96.4h5.5
		c4.2,0,7.1-0.7,8.7-2.2s2.5-3.6,2.5-6.4c0-5.5-3.7-8.2-11.2-8.2h-5.5V96.4z M149.4,122.9h3.3c4.3,0,7.5-0.2,9.5-0.6s3.6-1.4,4.9-3
		c1.3-1.6,1.9-3.6,1.9-6.1c0-2.3-0.6-4.2-1.8-5.7s-2.8-2.6-4.7-3.1c-1.9-0.5-4.6-0.8-8-0.8h-5L149.4,122.9L149.4,122.9z"/>
	<path id="XMLID_213_" class="st3" d="M190.2,123.2V79.3H183v-7h15.1v50.9h6.2v7H183v-7L190.2,123.2L190.2,123.2z"/>
	<path id="XMLID_210_" class="st3" d="M250.4,123.2v7h-13.8v-4.9c-3.8,3.7-8.1,5.6-12.8,5.6c-3.7,0-6.9-1.2-9.5-3.6
		s-4.1-5.4-4.1-9.2c0-3.8,1.4-6.9,4.3-9.3s6.3-3.7,10.4-3.7c3.8,0,7.4,1.1,11,3.4v-4c0-2-0.2-3.6-0.6-4.8c-0.4-1.1-1.3-2.1-2.7-3
		c-1.4-0.9-3.3-1.3-5.6-1.3c-4,0-6.8,1.6-8.6,4.7l-7.6-2c3.4-6.3,9.2-9.4,17.4-9.4c3,0,5.6,0.4,7.9,1.2s3.9,1.9,4.9,3.2
		s1.8,2.7,2.2,4.2c0.4,1.5,0.6,3.9,0.6,7.2v18.6L250.4,123.2L250.4,123.2z M235.8,115.2c-3.4-2.7-6.9-4-10.4-4c-2.2,0-4,0.6-5.5,1.9
		c-1.5,1.3-2.2,2.9-2.2,5c0,1.9,0.6,3.5,1.9,4.8s3,1.9,5.3,1.9c3.8,0,7.5-1.6,10.9-4.8V115.2z"/>
	<path id="XMLID_208_" class="st3" d="M292.7,89.9v15.2h-7.1c-0.4-2.9-1.5-5.1-3.6-6.7c-2-1.5-4.4-2.3-7-2.3c-3.5,0-6.4,1.3-8.7,3.8
		c-2.2,2.5-3.3,5.8-3.3,9.9c0,3.8,1,7.1,3.2,10c2.1,2.9,5.2,4.4,9.2,4.4c5.5,0,9.6-2.6,12.1-7.9l6.5,3.1c-3.6,8-9.9,12-18.9,12
		c-6.4,0-11.4-2.2-15.1-6.5c-3.7-4.4-5.5-9.4-5.5-15.1c0-6.1,2-11.1,6-15c4-4,8.6-5.9,13.8-5.9c4.5,0,8.2,1.3,11.3,4v-2.8H292.7z"/>
	<path id="XMLID_206_" class="st3" d="M10.3,198.1v-21h7.2v5.1c3.5,6.3,8,9.5,13.6,9.5c2.9,0,5.3-0.9,7.2-2.6s3-4,3-6.9
		c0-2.8-0.8-4.7-2.4-5.9c-1.6-1.2-4.6-2.4-9.1-3.6c-5.2-1.4-9-2.7-11.5-3.9c-2.5-1.2-4.5-3-6-5.3s-2.2-5-2.2-8.1
		c0-4.9,1.6-8.7,4.9-11.6c3.2-2.9,7.3-4.4,12.2-4.4c4.6,0,8.9,1.5,12.9,4.5v-3.9h7.1v17.6H40v-4c-3-4.5-7.1-6.7-12.3-6.7
		c-3.2,0-5.6,0.7-7.3,2.2s-2.5,3.2-2.5,5.2c0,1.6,0.4,2.9,1.3,4.1s2,2,3.3,2.6c1.3,0.6,3.9,1.3,7.9,2.3c5.1,1.3,8.8,2.6,11.1,3.7
		s4.3,3.1,5.9,5.8s2.5,5.8,2.5,9.3c0,4.9-1.7,9-5.2,12.2s-7.8,4.8-12.9,4.8c-5.3,0-10-1.9-14.2-5.7v4.8L10.3,198.1L10.3,198.1z"/>
	<path id="XMLID_204_" class="st4" d="M256.6,197.9v-14.8h5v3.6c2.4,4.4,5.5,6.6,9.4,6.6c2,0,3.6-0.6,5-1.8c1.4-1.2,2-2.8,2-4.8
		c0-1.9-0.5-3.3-1.7-4.2c-1.1-0.9-3.2-1.7-6.3-2.5c-3.6-1-6.2-1.9-8-2.8s-3.1-2.1-4.1-3.7s-1.5-3.5-1.5-5.7c0-3.4,1.1-6.1,3.3-8.2
		s5-3,8.4-3c3.2,0,6.2,1,8.9,3.1v-2.7h4.9v12.3h-4.9v-2.8c-2-3.1-4.9-4.7-8.5-4.7c-2.2,0-3.9,0.5-5,1.5c-1.2,1-1.8,2.3-1.8,3.7
		c0,1.1,0.3,2,0.9,2.9c0.6,0.8,1.4,1.4,2.3,1.8c0.9,0.4,2.7,0.9,5.4,1.6c3.5,0.9,6.1,1.8,7.7,2.6c1.6,0.8,3,2.2,4.1,4
		c1.1,1.9,1.7,4.1,1.7,6.5c0,3.5-1.2,6.3-3.6,8.6s-5.4,3.4-8.9,3.4c-3.6,0-6.9-1.3-9.8-4v3.4L256.6,197.9L256.6,197.9z"/>
	<path id="XMLID_202_" class="st3" d="M55.1,164.8v-7h5.3v-6.2l7.9-7.2v13.5h7.4v7h-7.4v19.6c0,3.1,0.2,5.1,0.5,5.8s1.2,1.1,2.6,1.1
		c1.5,0,2.9-0.3,4.3-0.8v7.2c-2,0.7-4.1,1.1-6.1,1.1c-2.4,0-4.4-0.5-5.9-1.6c-1.5-1.1-2.4-2.4-2.8-4s-0.6-4.4-0.6-8.3v-20
		L55.1,164.8L55.1,164.8z"/>
	<path id="XMLID_200_" class="st3" d="M125.4,191v7h-14.9v-4.6c-4.6,3.5-9.1,5.3-13.3,5.3c-2.7,0-4.9-0.6-6.7-1.8
		c-1.8-1.2-2.9-2.7-3.5-4.6c-0.6-1.9-0.9-4.9-0.9-9v-18.5h-5.7v-7h13.6v24.6c0,3,0.1,5,0.3,6c0.2,1,0.6,1.9,1.5,2.5
		c0.8,0.7,1.8,1,3,1c3.7,0,7.6-1.8,11.7-5.2v-21.8h-7.1v-7h15v33.3L125.4,191L125.4,191z"/>
	<path id="XMLID_197_" class="st3" d="M179.4,191v7h-15.1v-5.9c-3.9,4.4-8.7,6.6-14.4,6.6c-5.2,0-9.9-1.8-13.8-5.4s-6-8.7-6-15.3
		c0-6.6,2-11.9,6.1-15.7c4.1-3.8,8.7-5.7,13.8-5.7c5.4,0,10.2,2.2,14.2,6.5v-15.9h-7.7v-7h15.6v50.9L179.4,191L179.4,191z
		 M138.5,177.9c0,4.4,1.3,7.9,3.8,10.2c2.5,2.4,5.5,3.6,9,3.6c3.4,0,6.4-1.3,9-3.8c2.6-2.5,3.9-6,3.9-10.4c0-4.5-1.3-7.8-4-10.1
		s-5.7-3.4-9-3.4c-3.6,0-6.6,1.3-9,4C139.7,170.7,138.5,174,138.5,177.9z"/>
	<path id="XMLID_194_" class="st3" d="M188.6,191v-26.2h-6.2v-7h14.1V191h6.2v7h-20.4v-7H188.6z M187.5,144.1c0-1.3,0.5-2.4,1.4-3.3
		c0.9-0.9,2-1.4,3.4-1.4c1.3,0,2.4,0.5,3.4,1.4c0.9,0.9,1.4,2,1.4,3.4s-0.5,2.5-1.4,3.4c-0.9,0.9-2.1,1.4-3.4,1.4
		c-1.3,0-2.5-0.5-3.4-1.4C187.9,146.5,187.5,145.4,187.5,144.1z"/>
	<path id="XMLID_191_" class="st3" d="M207.7,177.9c0-6.2,2-11.3,6.2-15.3c4.1-4,9.1-6,15-6c5.8,0,10.8,2,14.9,5.9
		c4.2,3.9,6.3,9,6.3,15.4c0,6.3-2.1,11.5-6.2,15.4c-4.1,3.9-9.1,5.9-15,5.9c-6,0-11-2-15.1-6C209.7,189.3,207.7,184.1,207.7,177.9z
		 M216.1,177.9c0,4,1.2,7.2,3.7,9.8c2.5,2.5,5.5,3.8,9.1,3.8c3.6,0,6.7-1.3,9.1-3.9c2.5-2.6,3.7-5.8,3.7-9.7c0-4-1.3-7.2-3.8-9.8
		s-5.5-3.8-9.1-3.8c-3.7,0-6.8,1.3-9.2,3.9C217.3,170.8,216.1,174.1,216.1,177.9z"/>
</g>
</svg>
